<svg width="50" height="35" viewBox="0, 0, 50, 35" xmlns="http://www.w3.org/2000/svg">
  <!--1f-->
  <rect x="13" y="3" width="10" height="5" rx="0" ry="0" fill="none" stroke="#000"/>
  <rect x="13" y="8" width="10" height="5" rx="0" ry="0" fill="none" stroke="#000"/>
  <rect x="13" y="13" width="10" height="5" rx="0" ry="0" fill="none" stroke="#000"/>
  <rect x="13" y="18" width="10" height="5" rx="0" ry="0" fill="none" stroke="#000"/>
  <rect x="13" y="23" width="10" height="5" rx="0" ry="0" fill="none" stroke="#000"/>
  <!--2f-->
  <rect x="23" y="3" width="10" height="5" rx="0" ry="0" fill="none" stroke="#000"/>
  <rect x="23" y="8" width="10" height="5" rx="0" ry="0" fill="none" stroke="#000"/>
  <rect x="23" y="13" width="10" height="5" rx="0" ry="0" fill="none" stroke="#000"/>
  <rect x="23" y="18" width="10" height="5" rx="0" ry="0" fill="none" stroke="#000"/>
  <rect x="23" y="23" width="10" height="5" rx="0" ry="0" fill="none" stroke="#000"/>
  <!--3f-->
  <rect x="33" y="3" width="10" height="5" rx="0" ry="0" fill="none" stroke="#000"/>
  <rect x="33" y="8" width="10" height="5" rx="0" ry="0" fill="none" stroke="#000"/>
  <rect x="33" y="13" width="10" height="5" rx="0" ry="0" fill="none" stroke="#000"/>
  <rect x="33" y="18" width="10" height="5" rx="0" ry="0" fill="none" stroke="#000"/>
  <rect x="33" y="23" width="10" height="5" rx="0" ry="0" fill="none" stroke="#000"/>
  <!--0f-o-->
  <circle cx="8" cy="3" r="2" fill="none" stroke="#000"/>
  <circle cx="8" cy="8" r="2" fill="none" stroke="#000"/>
  <circle cx="8" cy="13" r="2" fill="none" stroke="#000"/>
  <circle cx="8" cy="18" r="2" fill="none" stroke="#000"/>
  <circle cx="8" cy="23" r="2" fill="none" stroke="#000"/>
  <circle cx="8" cy="28" r="2" fill="none" stroke="#000"/>
  <!--0f-x-->
  <line x1="6" y1="1" x2="10" y2="5" stroke="#000"/><line x1="10" y1="1" x2="6" y2="5" stroke="#000"/>
  <line x1="6" y1="6" x2="10" y2="10" stroke="#000"/><line x1="10" y1="6" x2="6" y2="10" stroke="#000"/>
  <line x1="6" y1="11" x2="10" y2="15" stroke="#000"/><line x1="10" y1="11" x2="6" y2="15" stroke="#000"/>
  <line x1="6" y1="16" x2="10" y2="20" stroke="#000"/><line x1="10" y1="16" x2="6" y2="20" stroke="#000"/>
  <line x1="6" y1="21" x2="10" y2="25" stroke="#000"/><line x1="10" y1="21" x2="6" y2="25" stroke="#000"/>
  <line x1="6" y1="26" x2="10" y2="30" stroke="#000"/><line x1="10" y1="26" x2="6" y2="30" stroke="#000"/>
  <!--1f-->
  <circle cx="18" cy="3" r="2" fill="#000" stroke="#000"/>
  <circle cx="18" cy="8" r="2" fill="#000" stroke="#000"/>
  <circle cx="18" cy="13" r="2" fill="#000" stroke="#000"/>
  <circle cx="18" cy="18" r="2" fill="#000" stroke="#000"/>
  <circle cx="18" cy="23" r="2" fill="#000" stroke="#000"/>
  <circle cx="18" cy="28" r="2" fill="#000" stroke="#000"/>
  <!--2f-->
  <circle cx="28" cy="3" r="2" fill="#000" stroke="#000"/>
  <circle cx="28" cy="8" r="2" fill="#000" stroke="#000"/>
  <circle cx="28" cy="13" r="2" fill="#000" stroke="#000"/>
  <circle cx="28" cy="18" r="2" fill="#000" stroke="#000"/>
  <circle cx="28" cy="23" r="2" fill="#000" stroke="#000"/>
  <circle cx="28" cy="28" r="2" fill="#000" stroke="#000"/>
  <!--3f-->
  <circle cx="38" cy="3" r="2" fill="#000" stroke="#000"/>
  <circle cx="38" cy="8" r="2" fill="#000" stroke="#000"/>
  <circle cx="38" cy="13" r="2" fill="#000" stroke="#000"/>
  <circle cx="38" cy="18" r="2" fill="#000" stroke="#000"/>
  <circle cx="38" cy="23" r="2" fill="#000" stroke="#000"/>
  <circle cx="38" cy="28" r="2" fill="#000" stroke="#000"/>
  <!--frets num-->
  <text x="16" y="34" font-size="4">01</text>
  <text x="26" y="34" font-size="4">02</text>
  <text x="36" y="34" font-size="4">03</text>
</svg>